<?xml version="1.0" standalone="no"?><!DOCTYPE svg PUBLIC "-//W3C//DTD SVG 1.1//EN" "http://www.w3.org/Graphics/SVG/1.1/DTD/svg11.dtd"><svg t="1694782583373" class="icon" viewBox="0 0 1194 1024" version="1.1" xmlns="http://www.w3.org/2000/svg" p-id="9209" xmlns:xlink="http://www.w3.org/1999/xlink" width="447.75" height="384"><path d="M899.51744 202.837333v-76.8A123.818667 123.818667 0 0 0 778.002773 0H121.618773A123.818667 123.818667 0 0 0 0.018773 125.866667v469.333333a123.818667 123.818667 0 0 0 121.6 125.781333h75.093334a53.077333 53.077333 0 0 1 46.250666 27.648l28.330667 51.2a26.112 26.112 0 0 0 45.994667 0l28.330666-51.2a53.077333 53.077333 0 0 1 46.250667-27.648v-392.533333a123.818667 123.818667 0 0 1 121.685333-125.610667zM230.418773 494.336q-116.821333-2.730667-120.32-143.189333 2.730667-143.445333 119.466667-148.394667 115.285333 2.730667 121.770667 97.365333H285.88544A52.309333 52.309333 0 0 0 230.418773 247.466667q-51.2 3.242667-54.272 103.936 3.413333 100.778667 54.784 102.4a51.2 51.2 0 0 0 55.978667-53.589334h65.450667Q345.960107 492.544 230.418773 494.336z" fill="#374E71" p-id="9210"></path><path d="M1073.08544 241.749333H567.826773a123.818667 123.818667 0 0 0-121.6 125.866667v430.165333a123.818667 123.818667 0 0 0 121.6 125.866667h10.069334a76.8 76.8 0 0 1 66.901333 40.021333l27.989333 50.090667a19.114667 19.114667 0 0 0 33.706667 0l27.989333-50.090667a76.8 76.8 0 0 1 66.986667-40.021333h271.701333a123.818667 123.818667 0 0 0 121.6-125.866667V367.616a123.818667 123.818667 0 0 0-121.685333-125.866667zM771.944107 713.472H598.546773V451.925333h168.96v43.861334H652.818773v60.757333h106.496v43.861333H652.818773v69.290667h118.784z m270.421333 0h-77.824L866.23744 495.786667l-1.365333 1.450666v216.32h-50.517334V452.010667h80.554667l95.573333 206.421333 1.365334-1.365333V452.266667h50.517333z" fill="#374E71" p-id="9211"></path></svg>