<?xml version="1.0" standalone="no"?><!DOCTYPE svg PUBLIC "-//W3C//DTD SVG 1.1//EN" "http://www.w3.org/Graphics/SVG/1.1/DTD/svg11.dtd"><svg t="1694782508029" class="icon" viewBox="0 0 1024 1024" version="1.1" xmlns="http://www.w3.org/2000/svg" p-id="4572" xmlns:xlink="http://www.w3.org/1999/xlink" width="384" height="384"><path d="M861.0304 218.5216l-315.3408-130.6624c-16.384-6.8096-34.7136-7.0144-51.3024-0.6656L168.8576 212.2752a69.1712 69.1712 0 0 0-44.3392 64.5632v249.6512c0 96.9728 71.168 273.2032 349.7472 411.2896 18.1248 8.96 39.3728 9.5232 57.9072 1.3824 282.5728-124.0064 371.5072-324.5056 371.5072-424.8064v-231.936c0-27.9552-16.8448-53.1968-42.6496-63.8976z m-310.7328 283.0336v199.6288c0 19.968-16.2304 36.1984-36.1984 36.1984s-36.1984-16.2304-36.1984-36.1984V501.5552c-37.888-14.592-64.8704-51.2512-64.8704-94.2592 0-55.808 45.2608-101.0688 101.0688-101.0688s101.0688 45.2608 101.0688 101.0688c0 43.008-26.9312 79.6672-64.8704 94.2592z" fill="#6C6CEA" p-id="4573"></path><path d="M841.728 292.5568c0-28.6208-1.9968-56.7808-5.8368-84.3776l-290.2528-120.2688c-16.384-6.8096-34.7136-7.0144-51.3024-0.6656L168.8576 212.2752a69.1712 69.1712 0 0 0-44.3392 64.5632v249.6512c0 85.0944 54.8352 231.2192 256.512 359.0656 264.8064-67.328 460.6976-307.3024 460.6976-592.9984z m-291.4304 208.9984v199.6288c0 19.968-16.2304 36.1984-36.1984 36.1984-19.968 0-36.1984-16.2304-36.1984-36.1984V501.5552c-37.9392-14.592-64.8704-51.2512-64.8704-94.2592 0-55.808 45.2608-101.0688 101.0688-101.0688s101.0688 45.2608 101.0688 101.0688c0 43.008-26.9312 79.6672-64.8704 94.2592z" fill="#757BF2" p-id="4574"></path><path d="M545.6384 87.8592c-16.384-6.8096-34.7136-7.0144-51.3024-0.6656L168.8576 212.2752a69.1712 69.1712 0 0 0-44.3392 64.5632v249.6512c0 39.7824 12.032 92.8768 45.3632 151.1936 117.76-20.8384 223.8464-75.3664 308.0192-153.2416v-22.8864c-37.9392-14.592-64.8704-51.2512-64.8704-94.2592 0-55.808 45.2608-101.0688 101.0688-101.0688 39.0144 0 72.8064 22.1696 89.6512 54.5792 35.5328-67.2256 58.9312-141.824 67.2256-220.9792l-125.3376-51.968z" fill="#8486F8" p-id="4575"></path><path d="M473.0368 95.3856l-304.128 116.8896a69.1712 69.1712 0 0 0-44.3392 64.5632v154.5216c157.184-59.3408 283.5968-181.504 348.4672-335.9744z" fill="#8D92F8" p-id="4576"></path></svg>