<?xml version="1.0" standalone="no"?><!DOCTYPE svg PUBLIC "-//W3C//DTD SVG 1.1//EN" "http://www.w3.org/Graphics/SVG/1.1/DTD/svg11.dtd"><svg t="1694781559692" class="icon" viewBox="0 0 1024 1024" version="1.1" xmlns="http://www.w3.org/2000/svg" p-id="1583" xmlns:xlink="http://www.w3.org/1999/xlink" width="384" height="384"><path d="M512 906.4448l-170.3936 74.3424-83.1488-166.2976-178.3808-52.8384 43.008-180.8384-102.4-155.2384 149.7088-111.2064 20.8896-183.9104 185.5488 11.0592 135.168-128 135.168 128 185.5488-11.0592 20.8896 183.9104 149.504 111.2064-102.4 155.2384 43.2128 180.8384-178.176 52.8384-83.3536 166.2976z m0 0" fill="#005918" p-id="1584"></path><path d="M443.1872 697.5488c43.2128-0.8192 88.064-3.072 135.9872-8.8064v-99.9424h-115.0976c4.096-43.008 4.096-86.4256 0-130.4576h115.0976v-54.272h-94.208c3.8912-39.3216 3.8912-79.2576 0-119.1936h219.136c-4.096 39.936-4.096 79.872 0 119.1936h-92.16v54.272h108.9536c-4.096 44.032-4.096 87.2448 0 130.4576h-108.9536v96.0512c22.528-3.2768 48.128-7.168 76.8-12.0832l-21.504-36.864 31.1296-19.8656c22.528 36.864 43.2128 74.3424 61.44 113.4592l-32.768 16.1792a1719.0912 1719.0912 0 0 0-27.8528-53.6576c-106.496 17.6128-188.8256 33.5872-249.6512 46.2848a81.3056 81.3056 0 0 0-6.144-40.7552z m168.7552-215.8592v83.968h75.1616l0.8192-83.968z m-32.768 0h-82.3296v83.968h82.3296z m-60.8256-173.6704v72.704h151.9616l0.8192-72.704z m-247.808 18.432c0-4.096 0.6144-8.8064 0.6144-13.7216 0-4.7104-0.8192-9.6256-0.8192-14.336 15.9744 0.8192 31.3344 1.6384 46.4896 1.6384h106.496v142.336l-95.232 1.6384-15.36 86.4256h104.8576v159.9488c0 12.0832-4.096 23.1424-13.5168 31.9488-9.6256 9.6256-26.624 15.36-51.2 15.9744h-15.9744a53.248 53.248 0 0 0-0.8192-22.3232 47.104 47.104 0 0 0-8.8064-19.2512c8.8064 0.8192 19.8656 1.6384 31.9488 1.6384a118.5792 118.5792 0 0 0 23.1424-1.6384c3.2768-1.4336 4.9152-5.5296 4.9152-12.6976v-127.1808h-110.592l22.528-128v-10.4448h1.6384v-2.4576l14.336 1.6384h75.9808v-92.16h-74.3424c-15.1552 0-30.5152 1.024-46.4896 1.024z m0 0" fill="#FFFFFF" p-id="1585"></path></svg>