<?xml version="1.0" standalone="no"?><!DOCTYPE svg PUBLIC "-//W3C//DTD SVG 1.1//EN" "http://www.w3.org/Graphics/SVG/1.1/DTD/svg11.dtd"><svg t="1694782448643" class="icon" viewBox="0 0 1024 1024" version="1.1" xmlns="http://www.w3.org/2000/svg" p-id="2611" xmlns:xlink="http://www.w3.org/1999/xlink" width="384" height="384"><path d="M959.984 1024h-896a64 64 0 0 1-64-64V64a64 64 0 0 1 64-64h896a64 64 0 0 1 64 64v896a64 64 0 0 1-64 64z m-424-848a341.632 341.632 0 0 0-133.904 27.024 342.128 342.128 0 0 0-109.328 73.712 343.184 343.184 0 0 0-73.728 109.328A342.064 342.064 0 0 0 192 519.984a341.776 341.776 0 0 0 27.024 133.872 342.4 342.4 0 0 0 73.728 109.328 342.768 342.768 0 0 0 109.328 73.728 342.128 342.128 0 0 0 133.904 27.04c42.704-5.84 65.6-14.816 71.872-28.24s-3.712-29.504-15.296-48.336l-0.096-0.144a149.28 149.28 0 0 1-22.832-50.064 62.272 62.272 0 0 1 20.8-56.864 81.248 81.248 0 0 1 61.472-23.072 329.04 329.04 0 0 1 59.584 7.728h0.128a328.112 328.112 0 0 0 60.048 7.808 82.08 82.08 0 0 0 67.792-29.28c20.496-24.352 33.728-64.768 40.432-123.552a342.192 342.192 0 0 0-27.024-133.92 343.408 343.408 0 0 0-73.712-109.328 342.4 342.4 0 0 0-109.36-73.712A341.456 341.456 0 0 0 535.984 176zM339.408 681.456a49.2 49.2 0 0 1-49.152-49.12 49.2 49.2 0 0 1 49.152-49.152 49.2 49.2 0 0 1 49.152 49.152 49.2 49.2 0 0 1-49.136 49.12z m0-196.576a49.2 49.2 0 0 1-49.152-49.12 49.2 49.2 0 0 1 49.152-49.152 49.2 49.2 0 0 1 49.152 49.152 49.2 49.2 0 0 1-49.136 49.12z m379.12-28.048a49.216 49.216 0 0 1-49.152-49.168 49.2 49.2 0 0 1 49.152-49.152 49.184 49.184 0 0 1 49.12 49.152 49.2 49.2 0 0 1-49.104 49.168z m-189.584-70.224a56.208 56.208 0 0 1-56.144-56.16 56.208 56.208 0 0 1 56.144-56.16 56.24 56.24 0 0 1 56.192 56.16 56.24 56.24 0 0 1-56.176 56.16z" fill="#347ED5" p-id="2612"></path></svg>